<?xml version="1.0" encoding="utf-8"?>
<!-- Generator: Adobe Illustrator 23.0.1, SVG Export Plug-In . SVG Version: 6.00 Build 0)  -->
<svg version="1.1" id="Layer_1" xmlns="http://www.w3.org/2000/svg" xmlns:xlink="http://www.w3.org/1999/xlink" x="0px" y="0px"
	 viewBox="0 0 401.1 512" style="enable-background:new 0 0 401.1 512;" xml:space="preserve">
<style type="text/css">
	.st0{fill:#4262F6;}
</style>
<path class="st0" d="M68.3,162.1v187.7c0,4.7,3.8,8.5,8.5,8.5h170.7c4.7,0,8.5-3.8,8.5-8.5V162.1c0-4.7-3.8-8.5-8.5-8.5H76.8
	C72.1,153.6,68.3,157.4,68.3,162.1z M85.3,170.7h153.6v170.7H85.3V170.7z"/>
<path class="st0" d="M238.9,0H85.3c-4.7,0-8.5,3.8-8.5,8.5v110.9H59.7c-14.1,0-25.6,11.5-25.6,25.6v8.5H8.5c-4.7,0-8.5,3.8-8.5,8.5
	v51.2c0,4.7,3.8,8.5,8.5,8.5h25.6v145.1c0,14.1,11.5,25.6,25.6,25.6h17.1v110.9c0,4.7,3.8,8.5,8.5,8.5h153.6c4.7,0,8.5-3.8,8.5-8.5
	V392.5h17.1c14.1,0,25.6-11.5,25.6-25.6V145.1c0-14.1-11.5-25.6-25.6-25.6h-17.1V8.5C247.5,3.8,243.6,0,238.9,0z M93.9,17.1h136.5
	v102.4H93.9V17.1z M17.1,204.8v-34.1h17.1v34.1H17.1z M230.4,494.9H93.9V392.5h136.5V494.9z M273.1,145.1v221.9
	c0,4.7-3.8,8.5-8.5,8.5H59.7c-4.7,0-8.5-3.8-8.5-8.5V145.1c0-4.7,3.8-8.5,8.5-8.5h204.8C269.2,136.5,273.1,140.4,273.1,145.1z"/>
<path class="st0" d="M213.3,230.4c0-3-1.6-5.8-4.1-7.3l-42.7-25.6c-4-2.4-9.3-1.1-11.7,2.9c-0.8,1.3-1.2,2.8-1.2,4.4v27.6L126,199.3
	c-3-3.6-8.4-4.1-12-1.1c-3.6,3-4.1,8.4-1.1,12L151,256l-38.1,45.7c-3,3.6-2.5,9,1.1,12c3.6,3,9,2.5,12-1.1l27.6-33.1v27.6
	c0,4.7,3.8,8.5,8.5,8.5c1.5,0,3.1-0.4,4.4-1.2l42.7-25.6c4-2.4,5.3-7.7,2.9-11.7c-0.7-1.2-1.7-2.2-2.9-2.9L178.7,256l30.5-18.3
	C211.8,236.2,213.3,233.4,213.3,230.4L213.3,230.4z M170.7,292.1v-21.1l17.6,10.5L170.7,292.1z M170.7,240.9v-21.1l17.6,10.5
	L170.7,240.9z"/>
<path class="st0" d="M273.1,93.9c1.7,0,42.7,0.6,42.7,51.2h17.1c0-67.5-59.1-68.3-59.7-68.3V93.9z"/>
<path class="st0" d="M273.1,59.7c3.1,0,76.8,1,76.8,85.3h17.1c0-101.2-92.9-102.4-93.9-102.4V59.7z"/>
<path class="st0" d="M384,145.1h17.1c0-135-126.7-136.5-128-136.5v17.1C277.6,25.6,384,27,384,145.1z"/>
</svg>
